<svg width="233" height="87" viewBox="0 0 233 87" fill="none" xmlns="http://www.w3.org/2000/svg">
<path d="M36.4 13V37.05C36.4 42.3167 34.9333 46.35 32 49.15C29.0667 51.9833 25.0167 53.4 19.85 53.4C16.8833 53.4 14.1667 52.9833 11.7 52.15C9.23333 51.35 7.13333 50.2 5.4 48.7L8.55 42.7C11.7167 45.2667 15.4167 46.55 19.65 46.55C22.5833 46.55 24.75 45.8167 26.15 44.35C27.5833 42.85 28.3 40.55 28.3 37.45V35.3C25.9667 38.1667 22.6667 39.6 18.4 39.6C13.9667 39.6 10.55 38.35 8.15 35.85C5.78333 33.3167 4.6 29.6833 4.6 24.95V13H12.7V24.45C12.7 27.1833 13.35 29.25 14.65 30.65C15.95 32.05 17.7833 32.75 20.15 32.75C22.65 32.75 24.6333 32.0167 26.1 30.55C27.5667 29.0833 28.3 26.8667 28.3 23.9V13H36.4ZM61.3578 48.6C57.7245 48.6 54.4411 47.8167 51.5078 46.25C48.6078 44.6833 46.3245 42.5333 44.6578 39.8C43.0245 37.0333 42.2078 33.9333 42.2078 30.5C42.2078 27.0667 43.0245 23.9833 44.6578 21.25C46.3245 18.4833 48.6078 16.3167 51.5078 14.75C54.4411 13.1833 57.7245 12.4 61.3578 12.4C64.9911 12.4 68.2578 13.1833 71.1578 14.75C74.0578 16.3167 76.3411 18.4833 78.0078 21.25C79.6745 23.9833 80.5078 27.0667 80.5078 30.5C80.5078 33.9333 79.6745 37.0333 78.0078 39.8C76.3411 42.5333 74.0578 44.6833 71.1578 46.25C68.2578 47.8167 64.9911 48.6 61.3578 48.6ZM61.3578 41.7C63.4245 41.7 65.2911 41.2333 66.9578 40.3C68.6245 39.3333 69.9245 38 70.8578 36.3C71.8245 34.6 72.3078 32.6667 72.3078 30.5C72.3078 28.3333 71.8245 26.4 70.8578 24.7C69.9245 23 68.6245 21.6833 66.9578 20.75C65.2911 19.7833 63.4245 19.3 61.3578 19.3C59.2911 19.3 57.4245 19.7833 55.7578 20.75C54.0911 21.6833 52.7745 23 51.8078 24.7C50.8745 26.4 50.4078 28.3333 50.4078 30.5C50.4078 32.6667 50.8745 34.6 51.8078 36.3C52.7745 38 54.0911 39.3333 55.7578 40.3C57.4245 41.2333 59.2911 41.7 61.3578 41.7ZM110.245 29.95H117.645V48H111.545V45.9C109.112 47.7 105.979 48.6 102.145 48.6C98.912 48.6 95.9453 47.9 93.2453 46.5C90.5453 45.1 88.3953 43.0667 86.7953 40.4C85.1953 37.7 84.3953 34.5 84.3953 30.8C84.3953 27.2333 85.212 24.0667 86.8453 21.3C88.512 18.5 90.812 16.3167 93.7453 14.75C96.6786 13.1833 99.9786 12.4 103.645 12.4C106.712 12.4 109.495 12.9167 111.995 13.95C114.495 14.9833 116.595 16.4833 118.295 18.45L113.095 23.25C110.595 20.6167 107.579 19.3 104.045 19.3C101.812 19.3 99.8286 19.7833 98.0953 20.75C96.362 21.6833 95.012 23.0167 94.0453 24.75C93.0786 26.4833 92.5953 28.4833 92.5953 30.75C92.5953 33.1167 93.062 35.1333 93.9953 36.8C94.962 38.4667 96.2453 39.7333 97.8453 40.6C99.4453 41.4333 101.195 41.85 103.095 41.85C105.929 41.85 108.312 41.05 110.245 39.45V29.95ZM151.92 21.1V48H144.47V44.9C142.536 47.2333 139.736 48.4 136.07 48.4C133.536 48.4 131.236 47.8333 129.17 46.7C127.136 45.5667 125.536 43.95 124.37 41.85C123.203 39.75 122.62 37.3167 122.62 34.55C122.62 31.7833 123.203 29.35 124.37 27.25C125.536 25.15 127.136 23.5333 129.17 22.4C131.236 21.2667 133.536 20.7 136.07 20.7C139.503 20.7 142.186 21.7833 144.12 23.95V21.1H151.92ZM137.42 42C139.386 42 141.02 41.3333 142.32 40C143.62 38.6333 144.27 36.8167 144.27 34.55C144.27 32.2833 143.62 30.4833 142.32 29.15C141.02 27.7833 139.386 27.1 137.42 27.1C135.42 27.1 133.77 27.7833 132.47 29.15C131.17 30.4833 130.52 32.2833 130.52 34.55C130.52 36.8167 131.17 38.6333 132.47 40C133.77 41.3333 135.42 42 137.42 42ZM175.341 46.7C174.574 47.2667 173.624 47.7 172.491 48C171.391 48.2667 170.241 48.4 169.041 48.4C165.808 48.4 163.324 47.5833 161.591 45.95C159.858 44.3167 158.991 41.9167 158.991 38.75V15.15H166.791V21.7H173.441V27.7H166.791V38.65C166.791 39.7833 167.074 40.6667 167.641 41.3C168.208 41.9 169.024 42.2 170.091 42.2C171.291 42.2 172.358 41.8667 173.291 41.2L175.341 46.7ZM206.846 21.1V48H199.446V44.8C198.413 45.9667 197.18 46.8667 195.746 47.5C194.313 48.1 192.763 48.4 191.096 48.4C187.563 48.4 184.763 47.3833 182.696 45.35C180.63 43.3167 179.596 40.3 179.596 36.3V21.1H187.396V35.15C187.396 39.4833 189.213 41.65 192.846 41.65C194.713 41.65 196.213 41.05 197.346 39.85C198.48 38.6167 199.046 36.8 199.046 34.4V21.1H206.846ZM221.523 24.65C222.456 23.35 223.706 22.3667 225.273 21.7C226.873 21.0333 228.706 20.7 230.773 20.7V27.9C229.906 27.8333 229.323 27.8 229.023 27.8C226.789 27.8 225.039 28.4333 223.773 29.7C222.506 30.9333 221.873 32.8 221.873 35.3V48H214.073V21.1H221.523V24.65Z" fill="black"/>
<path d="M5.11 83V78.98L5.455 79.91L0.94 72.5H2.545L6.34 78.755H5.47L9.28 72.5H10.765L6.265 79.91L6.595 78.98V83H5.11ZM16.5728 83.12C15.7728 83.12 15.0278 82.985 14.3378 82.715C13.6578 82.445 13.0678 82.07 12.5678 81.59C12.0678 81.1 11.6778 80.53 11.3978 79.88C11.1178 79.23 10.9778 78.52 10.9778 77.75C10.9778 76.98 11.1178 76.27 11.3978 75.62C11.6778 74.97 12.0678 74.405 12.5678 73.925C13.0678 73.435 13.6578 73.055 14.3378 72.785C15.0178 72.515 15.7628 72.38 16.5728 72.38C17.3728 72.38 18.1078 72.515 18.7778 72.785C19.4578 73.045 20.0478 73.42 20.5478 73.91C21.0578 74.39 21.4478 74.955 21.7178 75.605C21.9978 76.255 22.1378 76.97 22.1378 77.75C22.1378 78.53 21.9978 79.245 21.7178 79.895C21.4478 80.545 21.0578 81.115 20.5478 81.605C20.0478 82.085 19.4578 82.46 18.7778 82.73C18.1078 82.99 17.3728 83.12 16.5728 83.12ZM16.5728 81.785C17.1528 81.785 17.6878 81.685 18.1778 81.485C18.6778 81.285 19.1078 81.005 19.4678 80.645C19.8378 80.275 20.1228 79.845 20.3228 79.355C20.5328 78.865 20.6378 78.33 20.6378 77.75C20.6378 77.17 20.5328 76.635 20.3228 76.145C20.1228 75.655 19.8378 75.23 19.4678 74.87C19.1078 74.5 18.6778 74.215 18.1778 74.015C17.6878 73.815 17.1528 73.715 16.5728 73.715C15.9828 73.715 15.4378 73.815 14.9378 74.015C14.4478 74.215 14.0178 74.5 13.6478 74.87C13.2778 75.23 12.9878 75.655 12.7778 76.145C12.5778 76.635 12.4778 77.17 12.4778 77.75C12.4778 78.33 12.5778 78.865 12.7778 79.355C12.9878 79.845 13.2778 80.275 13.6478 80.645C14.0178 81.005 14.4478 81.285 14.9378 81.485C15.4378 81.685 15.9828 81.785 16.5728 81.785ZM29.1705 83.12C28.3605 83.12 27.6155 82.99 26.9355 82.73C26.2555 82.46 25.6655 82.085 25.1655 81.605C24.6655 81.115 24.2755 80.545 23.9955 79.895C23.7155 79.245 23.5755 78.53 23.5755 77.75C23.5755 76.97 23.7155 76.255 23.9955 75.605C24.2755 74.955 24.6655 74.39 25.1655 73.91C25.6755 73.42 26.2705 73.045 26.9505 72.785C27.6305 72.515 28.3805 72.38 29.2005 72.38C30.0305 72.38 30.7905 72.515 31.4805 72.785C32.1705 73.055 32.7555 73.46 33.2355 74L32.3055 74.93C31.8755 74.51 31.4055 74.205 30.8955 74.015C30.3955 73.815 29.8505 73.715 29.2605 73.715C28.6605 73.715 28.1005 73.815 27.5805 74.015C27.0705 74.215 26.6255 74.495 26.2455 74.855C25.8755 75.215 25.5855 75.645 25.3755 76.145C25.1755 76.635 25.0755 77.17 25.0755 77.75C25.0755 78.32 25.1755 78.855 25.3755 79.355C25.5855 79.845 25.8755 80.275 26.2455 80.645C26.6255 81.005 27.0705 81.285 27.5805 81.485C28.0905 81.685 28.6455 81.785 29.2455 81.785C29.8055 81.785 30.3405 81.7 30.8505 81.53C31.3705 81.35 31.8505 81.055 32.2905 80.645L33.1455 81.785C32.6255 82.225 32.0155 82.56 31.3155 82.79C30.6255 83.01 29.9105 83.12 29.1705 83.12ZM31.7055 81.59V77.69H33.1455V81.785L31.7055 81.59ZM34.4274 83L39.1824 72.5H40.6674L45.4374 83H43.8624L39.6174 73.34H40.2174L35.9724 83H34.4274ZM36.4524 80.375L36.8574 79.175H42.7674L43.2024 80.375H36.4524ZM52.382 77.465H57.797V78.755H52.382V77.465ZM52.532 83H51.032V72.5H58.442V73.805H52.532V83ZM65.1763 83.12C64.3763 83.12 63.6313 82.985 62.9413 82.715C62.2613 82.445 61.6713 82.07 61.1713 81.59C60.6713 81.1 60.2813 80.53 60.0013 79.88C59.7213 79.23 59.5813 78.52 59.5813 77.75C59.5813 76.98 59.7213 76.27 60.0013 75.62C60.2813 74.97 60.6713 74.405 61.1713 73.925C61.6713 73.435 62.2613 73.055 62.9413 72.785C63.6213 72.515 64.3663 72.38 65.1763 72.38C65.9763 72.38 66.7113 72.515 67.3813 72.785C68.0613 73.045 68.6513 73.42 69.1513 73.91C69.6613 74.39 70.0513 74.955 70.3213 75.605C70.6013 76.255 70.7413 76.97 70.7413 77.75C70.7413 78.53 70.6013 79.245 70.3213 79.895C70.0513 80.545 69.6613 81.115 69.1513 81.605C68.6513 82.085 68.0613 82.46 67.3813 82.73C66.7113 82.99 65.9763 83.12 65.1763 83.12ZM65.1763 81.785C65.7563 81.785 66.2913 81.685 66.7813 81.485C67.2813 81.285 67.7113 81.005 68.0713 80.645C68.4413 80.275 68.7263 79.845 68.9263 79.355C69.1363 78.865 69.2413 78.33 69.2413 77.75C69.2413 77.17 69.1363 76.635 68.9263 76.145C68.7263 75.655 68.4413 75.23 68.0713 74.87C67.7113 74.5 67.2813 74.215 66.7813 74.015C66.2913 73.815 65.7563 73.715 65.1763 73.715C64.5863 73.715 64.0413 73.815 63.5413 74.015C63.0513 74.215 62.6213 74.5 62.2513 74.87C61.8813 75.23 61.5913 75.655 61.3813 76.145C61.1813 76.635 61.0813 77.17 61.0813 77.75C61.0813 78.33 61.1813 78.865 61.3813 79.355C61.5913 79.845 61.8813 80.275 62.2513 80.645C62.6213 81.005 63.0513 81.285 63.5413 81.485C64.0413 81.685 64.5863 81.785 65.1763 81.785ZM73.034 83V72.5H77.129C78.049 72.5 78.834 72.645 79.484 72.935C80.134 73.225 80.634 73.645 80.984 74.195C81.334 74.745 81.509 75.4 81.509 76.16C81.509 76.92 81.334 77.575 80.984 78.125C80.634 78.665 80.134 79.08 79.484 79.37C78.834 79.66 78.049 79.805 77.129 79.805H73.859L74.534 79.115V83H73.034ZM80.054 83L77.384 79.19H78.989L81.689 83H80.054ZM74.534 79.265L73.859 78.53H77.084C78.044 78.53 78.769 78.325 79.259 77.915C79.759 77.495 80.009 76.91 80.009 76.16C80.009 75.41 79.759 74.83 79.259 74.42C78.769 74.01 78.044 73.805 77.084 73.805H73.859L74.534 73.055V79.265ZM87.9607 83V72.5H92.6707C93.8807 72.5 94.8107 72.745 95.4607 73.235C96.1107 73.715 96.4357 74.375 96.4357 75.215C96.4357 75.785 96.3057 76.265 96.0457 76.655C95.7957 77.045 95.4557 77.345 95.0257 77.555C94.5957 77.765 94.1307 77.87 93.6307 77.87L93.9007 77.42C94.5007 77.42 95.0307 77.525 95.4907 77.735C95.9507 77.945 96.3157 78.255 96.5857 78.665C96.8557 79.065 96.9907 79.565 96.9907 80.165C96.9907 81.065 96.6507 81.765 95.9707 82.265C95.3007 82.755 94.3007 83 92.9707 83H87.9607ZM89.4607 81.785H92.9107C93.7407 81.785 94.3757 81.645 94.8157 81.365C95.2557 81.085 95.4757 80.645 95.4757 80.045C95.4757 79.435 95.2557 78.99 94.8157 78.71C94.3757 78.43 93.7407 78.29 92.9107 78.29H89.3257V77.075H92.5357C93.2957 77.075 93.8857 76.935 94.3057 76.655C94.7257 76.375 94.9357 75.955 94.9357 75.395C94.9357 74.835 94.7257 74.415 94.3057 74.135C93.8857 73.855 93.2957 73.715 92.5357 73.715H89.4607V81.785ZM100.678 77.03H106.078V78.305H100.678V77.03ZM100.813 81.695H106.933V83H99.3133V72.5H106.723V73.805H100.813V81.695ZM114.087 83.12C113.277 83.12 112.532 82.99 111.852 82.73C111.172 82.46 110.582 82.085 110.082 81.605C109.582 81.115 109.192 80.545 108.912 79.895C108.632 79.245 108.492 78.53 108.492 77.75C108.492 76.97 108.632 76.255 108.912 75.605C109.192 74.955 109.582 74.39 110.082 73.91C110.592 73.42 111.187 73.045 111.867 72.785C112.547 72.515 113.297 72.38 114.117 72.38C114.947 72.38 115.707 72.515 116.397 72.785C117.087 73.055 117.672 73.46 118.152 74L117.222 74.93C116.792 74.51 116.322 74.205 115.812 74.015C115.312 73.815 114.767 73.715 114.177 73.715C113.577 73.715 113.017 73.815 112.497 74.015C111.987 74.215 111.542 74.495 111.162 74.855C110.792 75.215 110.502 75.645 110.292 76.145C110.092 76.635 109.992 77.17 109.992 77.75C109.992 78.32 110.092 78.855 110.292 79.355C110.502 79.845 110.792 80.275 111.162 80.645C111.542 81.005 111.987 81.285 112.497 81.485C113.007 81.685 113.562 81.785 114.162 81.785C114.722 81.785 115.257 81.7 115.767 81.53C116.287 81.35 116.767 81.055 117.207 80.645L118.062 81.785C117.542 82.225 116.932 82.56 116.232 82.79C115.542 83.01 114.827 83.12 114.087 83.12ZM116.622 81.59V77.69H118.062V81.785L116.622 81.59ZM120.934 83V72.5H122.434V83H120.934ZM125.578 83V72.5H126.808L133.753 81.125H133.108V72.5H134.608V83H133.378L126.433 74.375H127.078V83H125.578ZM137.751 83V72.5H138.981L145.926 81.125H145.281V72.5H146.781V83H145.551L138.606 74.375H139.251V83H137.751ZM151.289 77.03H156.689V78.305H151.289V77.03ZM151.424 81.695H157.544V83H149.924V72.5H157.334V73.805H151.424V81.695ZM159.972 83V72.5H164.067C164.987 72.5 165.772 72.645 166.422 72.935C167.072 73.225 167.572 73.645 167.922 74.195C168.272 74.745 168.447 75.4 168.447 76.16C168.447 76.92 168.272 77.575 167.922 78.125C167.572 78.665 167.072 79.08 166.422 79.37C165.772 79.66 164.987 79.805 164.067 79.805H160.797L161.472 79.115V83H159.972ZM166.992 83L164.322 79.19H165.927L168.627 83H166.992ZM161.472 79.265L160.797 78.53H164.022C164.982 78.53 165.707 78.325 166.197 77.915C166.697 77.495 166.947 76.91 166.947 76.16C166.947 75.41 166.697 74.83 166.197 74.42C165.707 74.01 164.982 73.805 164.022 73.805H160.797L161.472 73.055V79.265ZM173.931 83.12C173.131 83.12 172.366 83 171.636 82.76C170.906 82.51 170.331 82.19 169.911 81.8L170.466 80.63C170.866 80.98 171.376 81.27 171.996 81.5C172.616 81.73 173.261 81.845 173.931 81.845C174.541 81.845 175.036 81.775 175.416 81.635C175.796 81.495 176.076 81.305 176.256 81.065C176.436 80.815 176.526 80.535 176.526 80.225C176.526 79.865 176.406 79.575 176.166 79.355C175.936 79.135 175.631 78.96 175.251 78.83C174.881 78.69 174.471 78.57 174.021 78.47C173.571 78.37 173.116 78.255 172.656 78.125C172.206 77.985 171.791 77.81 171.411 77.6C171.041 77.39 170.741 77.11 170.511 76.76C170.281 76.4 170.166 75.94 170.166 75.38C170.166 74.84 170.306 74.345 170.586 73.895C170.876 73.435 171.316 73.07 171.906 72.8C172.506 72.52 173.266 72.38 174.186 72.38C174.796 72.38 175.401 72.46 176.001 72.62C176.601 72.78 177.121 73.01 177.561 73.31L177.066 74.51C176.616 74.21 176.141 73.995 175.641 73.865C175.141 73.725 174.656 73.655 174.186 73.655C173.596 73.655 173.111 73.73 172.731 73.88C172.351 74.03 172.071 74.23 171.891 74.48C171.721 74.73 171.636 75.01 171.636 75.32C171.636 75.69 171.751 75.985 171.981 76.205C172.221 76.425 172.526 76.6 172.896 76.73C173.276 76.86 173.691 76.98 174.141 77.09C174.591 77.19 175.041 77.305 175.491 77.435C175.951 77.565 176.366 77.735 176.736 77.945C177.116 78.155 177.421 78.435 177.651 78.785C177.881 79.135 177.996 79.585 177.996 80.135C177.996 80.665 177.851 81.16 177.561 81.62C177.271 82.07 176.821 82.435 176.211 82.715C175.611 82.985 174.851 83.12 173.931 83.12Z" fill="black"/>
</svg>
