<svg width="227" height="42" viewBox="0 0 227 42" fill="none" xmlns="http://www.w3.org/2000/svg">
<path d="M32.4 0.999998V25.05C32.4 30.3167 30.9333 34.35 28 37.15C25.0667 39.9833 21.0167 41.4 15.85 41.4C12.8833 41.4 10.1667 40.9833 7.7 40.15C5.23333 39.35 3.13333 38.2 1.4 36.7L4.55 30.7C7.71667 33.2667 11.4167 34.55 15.65 34.55C18.5833 34.55 20.75 33.8167 22.15 32.35C23.5833 30.85 24.3 28.55 24.3 25.45V23.3C21.9667 26.1667 18.6667 27.6 14.4 27.6C9.96667 27.6 6.55 26.35 4.15 23.85C1.78333 21.3167 0.6 17.6833 0.6 12.95V0.999998H8.7V12.45C8.7 15.1833 9.35 17.25 10.65 18.65C11.95 20.05 13.7833 20.75 16.15 20.75C18.65 20.75 20.6333 20.0167 22.1 18.55C23.5667 17.0833 24.3 14.8667 24.3 11.9V0.999998H32.4ZM57.3578 36.6C53.7245 36.6 50.4411 35.8167 47.5078 34.25C44.6078 32.6833 42.3245 30.5333 40.6578 27.8C39.0245 25.0333 38.2078 21.9333 38.2078 18.5C38.2078 15.0667 39.0245 11.9833 40.6578 9.25C42.3245 6.48333 44.6078 4.31667 47.5078 2.75C50.4411 1.18333 53.7245 0.399999 57.3578 0.399999C60.9911 0.399999 64.2578 1.18333 67.1578 2.75C70.0578 4.31667 72.3411 6.48333 74.0078 9.25C75.6745 11.9833 76.5078 15.0667 76.5078 18.5C76.5078 21.9333 75.6745 25.0333 74.0078 27.8C72.3411 30.5333 70.0578 32.6833 67.1578 34.25C64.2578 35.8167 60.9911 36.6 57.3578 36.6ZM57.3578 29.7C59.4245 29.7 61.2911 29.2333 62.9578 28.3C64.6245 27.3333 65.9245 26 66.8578 24.3C67.8245 22.6 68.3078 20.6667 68.3078 18.5C68.3078 16.3333 67.8245 14.4 66.8578 12.7C65.9245 11 64.6245 9.68333 62.9578 8.75C61.2911 7.78333 59.4245 7.3 57.3578 7.3C55.2911 7.3 53.4245 7.78333 51.7578 8.75C50.0911 9.68333 48.7745 11 47.8078 12.7C46.8745 14.4 46.4078 16.3333 46.4078 18.5C46.4078 20.6667 46.8745 22.6 47.8078 24.3C48.7745 26 50.0911 27.3333 51.7578 28.3C53.4245 29.2333 55.2911 29.7 57.3578 29.7ZM106.245 17.95H113.645V36H107.545V33.9C105.112 35.7 101.979 36.6 98.1453 36.6C94.912 36.6 91.9453 35.9 89.2453 34.5C86.5453 33.1 84.3953 31.0667 82.7953 28.4C81.1953 25.7 80.3953 22.5 80.3953 18.8C80.3953 15.2333 81.212 12.0667 82.8453 9.3C84.512 6.5 86.812 4.31667 89.7453 2.75C92.6786 1.18333 95.9786 0.399999 99.6453 0.399999C102.712 0.399999 105.495 0.916665 107.995 1.95C110.495 2.98333 112.595 4.48333 114.295 6.45L109.095 11.25C106.595 8.61667 103.579 7.3 100.045 7.3C97.812 7.3 95.8286 7.78333 94.0953 8.75C92.362 9.68333 91.012 11.0167 90.0453 12.75C89.0786 14.4833 88.5953 16.4833 88.5953 18.75C88.5953 21.1167 89.062 23.1333 89.9953 24.8C90.962 26.4667 92.2453 27.7333 93.8453 28.6C95.4453 29.4333 97.1953 29.85 99.0953 29.85C101.929 29.85 104.312 29.05 106.245 27.45V17.95ZM147.92 9.1V36H140.47V32.9C138.536 35.2333 135.736 36.4 132.07 36.4C129.536 36.4 127.236 35.8333 125.17 34.7C123.136 33.5667 121.536 31.95 120.37 29.85C119.203 27.75 118.62 25.3167 118.62 22.55C118.62 19.7833 119.203 17.35 120.37 15.25C121.536 13.15 123.136 11.5333 125.17 10.4C127.236 9.26667 129.536 8.7 132.07 8.7C135.503 8.7 138.186 9.78333 140.12 11.95V9.1H147.92ZM133.42 30C135.386 30 137.02 29.3333 138.32 28C139.62 26.6333 140.27 24.8167 140.27 22.55C140.27 20.2833 139.62 18.4833 138.32 17.15C137.02 15.7833 135.386 15.1 133.42 15.1C131.42 15.1 129.77 15.7833 128.47 17.15C127.17 18.4833 126.52 20.2833 126.52 22.55C126.52 24.8167 127.17 26.6333 128.47 28C129.77 29.3333 131.42 30 133.42 30ZM171.341 34.7C170.574 35.2667 169.624 35.7 168.491 36C167.391 36.2667 166.241 36.4 165.041 36.4C161.808 36.4 159.324 35.5833 157.591 33.95C155.858 32.3167 154.991 29.9167 154.991 26.75V3.15H162.791V9.7H169.441V15.7H162.791V26.65C162.791 27.7833 163.074 28.6667 163.641 29.3C164.208 29.9 165.024 30.2 166.091 30.2C167.291 30.2 168.358 29.8667 169.291 29.2L171.341 34.7ZM202.846 9.1V36H195.446V32.8C194.413 33.9667 193.18 34.8667 191.746 35.5C190.313 36.1 188.763 36.4 187.096 36.4C183.563 36.4 180.763 35.3833 178.696 33.35C176.63 31.3167 175.596 28.3 175.596 24.3V9.1H183.396V23.15C183.396 27.4833 185.213 29.65 188.846 29.65C190.713 29.65 192.213 29.05 193.346 27.85C194.48 26.6167 195.046 24.8 195.046 22.4V9.1H202.846ZM217.523 12.65C218.456 11.35 219.706 10.3667 221.273 9.7C222.873 9.03333 224.706 8.7 226.773 8.7V15.9C225.906 15.8333 225.323 15.8 225.023 15.8C222.789 15.8 221.039 16.4333 219.773 17.7C218.506 18.9333 217.873 20.8 217.873 23.3V36H210.073V9.1H217.523V12.65Z" fill="black"/>
</svg>
